<?xml version="1.0" standalone="no"?>
<!DOCTYPE svg PUBLIC "-//W3C//DTD SVG 20010904//EN"
 "http://www.w3.org/TR/2001/REC-SVG-20010904/DTD/svg10.dtd">
<svg version="1.0" xmlns="http://www.w3.org/2000/svg"
 width="744.000000pt" height="214.000000pt" viewBox="0 0 744.000000 214.000000"
 preserveAspectRatio="xMidYMid meet">

<g transform="translate(0.000000,214.000000) scale(0.100000,-0.100000)"
fill="#000000" stroke="none">
<path d="M3704 2090 l-3421 -5 -48 -30 c-57 -35 -110 -100 -125 -153 -6 -24
-10 -352 -10 -950 l0 -912 3542 2 3543 3 46 21 c58 27 116 85 143 143 21 46
21 52 24 964 l2 917 -102 0 c-57 0 -119 1 -138 3 -19 2 -1574 0 -3456 -3z
m3388 -123 c66 -26 132 -88 165 -155 l28 -57 0 -685 0 -685 -24 -52 c-27 -61
-93 -126 -159 -156 l-47 -22 -3310 0 -3310 0 -45 23 c-73 36 -116 78 -149 144
l-31 61 0 686 0 686 24 51 c40 86 120 151 213 173 22 5 1428 8 3318 8 3149 -2
3282 -3 3327 -20z"/>
<path d="M450 1921 c-84 -26 -151 -93 -175 -174 -14 -48 -15 -137 -13 -703 l3
-649 29 -53 c16 -28 44 -64 63 -78 76 -58 -173 -54 3408 -52 l3290 3 40 22
c52 28 89 68 114 123 20 44 21 63 21 711 l0 665 -26 52 c-30 61 -80 105 -143
127 -40 13 -406 15 -3315 14 -1799 0 -3282 -4 -3296 -8z m5719 -252 c35 -12
61 -53 61 -95 0 -41 -59 -94 -105 -94 -53 0 -95 44 -95 100 0 33 6 48 29 71
32 31 59 36 110 18z m-5331 -43 c85 -43 153 -136 172 -235 12 -64 -3 -155 -37
-228 -29 -60 -83 -104 -153 -123 -47 -13 -197 -13 -260 1 l-50 11 0 187 c0
267 8 369 31 382 82 44 216 46 297 5z m2448 -33 c-13 -122 -2 -113 -132 -113
-90 0 -114 -3 -114 -14 0 -10 27 -15 110 -21 l110 -7 0 -73 0 -74 -57 -6
c-148 -15 -143 -14 -143 -45 0 -28 0 -28 58 -24 31 2 87 5 125 8 l67 4 0 -88
0 -88 -92 -6 c-51 -3 -147 -7 -213 -8 l-120 -3 -6 130 c-4 72 -10 212 -14 313
l-7 182 217 0 218 0 -7 -67z m206 1 c6 -4 8 -59 4 -153 -4 -80 -3 -162 2 -181
7 -31 12 -35 44 -38 l36 -3 4 65 c3 54 9 72 35 103 65 81 198 112 275 65 38
-24 83 -85 94 -126 7 -30 24 -35 24 -8 0 10 13 39 29 64 36 57 112 98 183 98
61 0 137 -37 170 -82 l23 -33 5 50 5 50 37 -2 c37 -2 38 -1 44 38 4 22 12 43
18 45 6 2 41 -2 76 -9 l65 -13 -2 -42 c-2 -41 -1 -42 31 -42 18 0 35 -2 38 -5
2 -3 -2 -36 -10 -74 -15 -70 -15 -70 -51 -73 l-36 -3 2 -49 c2 -64 20 -84 63
-66 17 7 32 11 34 9 1 -2 15 -26 30 -52 27 -47 27 -49 9 -69 -46 -52 -171 -75
-233 -43 -47 25 -63 67 -68 185 l-4 106 -36 11 c-31 10 -42 8 -74 -8 -39 -20
-78 -25 -78 -11 0 5 -12 14 -26 21 -34 15 -74 -3 -93 -43 -12 -25 -11 -31 6
-55 28 -36 68 -39 102 -7 l26 25 58 -37 c31 -20 57 -42 57 -47 0 -16 -70 -80
-105 -98 -84 -42 -164 -27 -236 42 -46 45 -69 94 -69 149 0 18 -3 21 -17 14
-10 -5 -64 -20 -121 -32 -61 -14 -101 -28 -99 -34 6 -18 53 -18 87 -1 32 16
33 16 87 -20 52 -34 54 -37 40 -58 -30 -46 -94 -80 -156 -85 -78 -6 -125 11
-178 65 -26 25 -43 37 -40 26 3 -10 8 -28 12 -41 5 -19 1 -25 -31 -38 -102
-43 -207 -6 -239 83 -19 53 -33 353 -20 439 l7 47 75 -7 c41 -3 79 -9 85 -12z
m1614 -123 c23 -10 45 -24 49 -30 8 -13 -62 -120 -79 -122 -6 -1 -20 0 -32 0
-11 1 -31 -7 -45 -18 -22 -18 -24 -27 -29 -143 l-5 -123 -78 -8 c-43 -5 -80
-7 -82 -5 -2 2 -7 103 -11 225 l-7 220 86 8 c47 3 90 5 94 2 4 -2 17 -1 28 4
33 13 68 10 111 -10z m374 -17 c79 -46 121 -177 86 -267 -56 -149 -255 -196
-370 -89 -38 36 -76 118 -76 165 0 72 54 157 123 194 67 34 176 33 237 -3z
m446 20 c70 -33 105 -124 103 -268 -1 -50 -4 -104 -8 -121 -7 -30 -8 -30 -66
-28 -111 4 -109 2 -101 96 7 92 -4 171 -27 195 -14 14 -18 14 -40 -1 -36 -23
-51 -98 -42 -208 7 -101 16 -92 -97 -104 l-58 -6 0 219 0 219 77 7 c46 4 79 3
81 -2 1 -5 19 -4 40 4 50 18 97 17 138 -2z m-4133 -7 c57 -24 60 -37 21 -90
-29 -40 -39 -47 -67 -47 -23 0 -41 -8 -60 -28 -25 -26 -26 -33 -29 -142 l-3
-115 -68 -8 c-38 -5 -70 -7 -72 -5 -2 2 -7 99 -11 216 l-7 212 49 2 c27 1 73
3 102 3 28 1 55 5 59 8 11 11 51 8 86 -6z m4427 -213 l0 -214 -84 0 -84 0 -6
43 c-4 34 -11 369 -7 387 0 3 41 4 91 2 l90 -3 0 -215z m315 207 c22 -10 54
-34 71 -53 l32 -36 10 23 c6 13 27 36 48 51 34 27 45 29 120 29 46 0 88 -5 94
-11 7 -7 7 -27 -1 -66 l-11 -55 -54 1 c-71 1 -74 -18 -4 -24 31 -3 67 -13 81
-22 53 -34 76 -132 43 -187 -39 -66 -123 -93 -226 -72 -79 17 -84 26 -53 98
l26 60 44 -15 c44 -14 75 -11 75 6 0 5 -24 12 -54 14 -66 5 -119 41 -136 92
l-11 34 -51 -21 c-40 -16 -54 -18 -67 -9 -38 28 -62 32 -90 17 -46 -23 -55
-71 -21 -105 27 -27 66 -25 96 5 l25 25 59 -40 c33 -23 60 -45 60 -49 0 -12
-74 -77 -107 -94 -73 -37 -149 -29 -221 23 -57 41 -82 94 -82 172 1 101 48
176 135 214 43 19 123 17 170 -5z m-4411 -5 c22 -9 37 -11 44 -4 5 5 37 12 71
15 l61 6 0 -156 c0 -319 -34 -417 -158 -453 -87 -26 -168 -7 -224 53 -26 27
-74 121 -66 129 5 4 104 24 123 24 7 0 18 -14 25 -31 22 -52 73 -62 118 -24
27 23 51 79 39 91 -2 2 -20 -3 -40 -11 -83 -34 -192 -7 -244 62 -32 42 -43
133 -23 186 40 101 172 156 274 113z m-920 -7 c2 -2 -1 -41 -7 -87 -7 -60 -7
-93 2 -122 14 -46 41 -66 71 -50 33 17 42 48 48 156 5 115 5 114 88 114 l41 0
6 -122 c4 -66 7 -161 7 -210 l0 -89 -62 3 c-60 3 -63 4 -66 30 l-3 27 -36 -24
c-45 -32 -95 -40 -143 -26 -44 13 -73 47 -89 106 -12 43 -15 262 -4 290 5 15
16 17 75 13 38 -3 70 -7 72 -9z m1386 -14 c32 -18 40 -18 40 -1 0 11 14 13 68
9 37 -3 70 -8 74 -12 4 -3 4 -97 1 -208 l-6 -203 -31 0 c-58 0 -106 12 -106
26 0 17 0 17 -43 -1 -199 -83 -356 202 -195 352 52 49 147 67 198 38z m-522
-762 c2 -9 -11 -13 -47 -13 l-51 0 0 -35 c0 -34 1 -35 41 -35 52 0 48 -24 -4
-28 -35 -3 -37 -5 -37 -38 l0 -34 50 0 c38 0 50 -4 50 -15 0 -12 -14 -15 -70
-15 l-70 0 0 108 c0 60 3 112 7 116 12 12 126 2 131 -11z m72 -83 l0 -100 50
0 c38 0 50 -4 50 -15 0 -12 -14 -15 -65 -15 l-65 0 0 115 c0 96 3 115 15 115
12 0 15 -18 15 -100z m268 83 c2 -9 -11 -13 -47 -13 l-51 0 0 -35 c0 -34 1
-35 41 -35 52 0 48 -24 -4 -28 -35 -3 -37 -5 -37 -38 l0 -34 50 0 c38 0 50 -4
50 -15 0 -12 -14 -15 -70 -15 l-70 0 0 108 c0 60 3 112 7 116 12 12 126 2 131
-11z m176 2 c26 -20 12 -37 -19 -23 -53 24 -103 -31 -90 -99 3 -18 13 -39 21
-48 18 -17 70 -20 80 -4 4 8 10 7 18 -1 16 -17 -20 -40 -62 -40 -52 0 -92 48
-92 109 1 25 7 57 14 70 26 46 92 65 130 36z m196 0 c0 -10 -11 -15 -35 -15
l-35 0 0 -100 c0 -82 -3 -100 -15 -100 -12 0 -15 18 -15 100 l0 100 -35 0
c-33 0 -43 8 -28 23 3 4 42 7 85 7 63 0 78 -3 78 -15z m167 -8 c23 -22 19 -77
-6 -96 l-21 -16 25 -40 c29 -48 30 -55 7 -55 -10 0 -27 18 -41 45 -15 29 -31
45 -42 45 -16 0 -19 -8 -19 -45 0 -38 -3 -45 -20 -45 -19 0 -20 7 -20 108 0
60 3 112 8 116 12 13 112 0 129 -17z m194 6 c36 -21 55 -76 45 -128 -16 -84
-99 -113 -157 -56 -25 25 -29 37 -29 83 0 58 18 94 54 108 33 13 55 12 87 -7z
m171 -68 l48 -80 0 83 c0 66 3 82 15 82 12 0 15 -19 15 -115 0 -144 -10 -147
-79 -27 l-51 87 0 -87 c0 -72 -3 -88 -15 -88 -12 0 -15 20 -15 116 0 105 2
115 18 112 9 -2 38 -39 64 -83z m168 -30 c0 -96 -3 -115 -15 -115 -12 0 -15
19 -15 115 0 96 3 115 15 115 12 0 15 -19 15 -115z m181 105 c10 -6 19 -17 19
-25 0 -17 -16 -20 -25 -5 -12 20 -54 10 -75 -17 -17 -22 -21 -37 -17 -70 2
-24 10 -50 17 -58 14 -17 53 -20 80 -5 26 14 37 -7 14 -25 -49 -37 -126 -3
-144 63 -25 94 56 182 131 142z m269 -5 c0 -11 -12 -15 -50 -15 l-50 0 0 -35
c0 -34 1 -35 40 -35 29 0 40 -4 40 -15 0 -11 -11 -15 -40 -15 -39 0 -40 -1
-40 -35 l0 -35 50 0 c38 0 50 -4 50 -15 0 -12 -14 -15 -65 -15 l-65 0 0 115 0
115 65 0 c51 0 65 -3 65 -15z m174 0 c24 -19 12 -39 -16 -24 -11 6 -31 8 -44
5 -70 -18 -57 -166 14 -166 16 0 33 5 40 12 9 9 15 9 23 1 15 -15 -27 -43 -67
-43 -37 0 -80 36 -90 75 -24 97 71 193 140 140z m197 -14 c25 -26 29 -37 29
-86 0 -49 -4 -60 -29 -86 -58 -58 -141 -26 -156 59 -19 112 83 186 156 113z
m134 -31 c12 -30 25 -64 29 -75 6 -16 13 -5 36 55 21 57 32 75 46 75 17 0 19
-9 19 -110 0 -97 -2 -110 -17 -113 -16 -3 -18 6 -19 75 0 43 -3 71 -6 63 -3
-8 -14 -39 -25 -67 -11 -29 -23 -53 -28 -53 -4 0 -19 30 -33 68 l-26 67 0 -77
c-1 -62 -4 -78 -16 -78 -12 0 -15 20 -15 116 0 103 2 115 17 112 10 -2 26 -26
38 -58z m251 -20 l29 -80 29 80 c22 62 33 80 47 80 18 0 19 -9 19 -115 0 -94
-3 -115 -15 -115 -11 0 -15 18 -17 83 l-3 82 -25 -70 c-14 -38 -29 -70 -35
-70 -5 0 -22 32 -37 70 l-27 70 -1 -82 c0 -67 -3 -83 -15 -83 -12 0 -15 19
-15 115 0 106 2 115 19 115 14 0 25 -19 47 -80z m312 63 c2 -9 -11 -13 -47
-13 l-51 0 0 -35 c0 -34 1 -35 41 -35 52 0 48 -24 -4 -28 -35 -3 -37 -5 -37
-38 l0 -34 50 0 c38 0 50 -4 50 -15 0 -12 -14 -15 -70 -15 l-70 0 0 108 c0 60
3 112 7 116 12 12 126 2 131 -11z m149 6 c15 -5 31 -16 35 -22 14 -22 8 -61
-13 -83 l-21 -23 21 -34 c25 -40 27 -57 7 -57 -8 0 -25 19 -38 43 -15 27 -31
43 -46 45 -20 3 -22 -1 -22 -42 0 -34 -4 -46 -15 -46 -12 0 -15 19 -15 115 l0
115 39 0 c22 0 52 -5 68 -11z m218 -2 c11 -9 15 -19 10 -26 -5 -9 -10 -10 -18
-2 -17 17 -55 13 -77 -9 -25 -25 -27 -95 -4 -128 16 -24 62 -30 81 -11 6 6 16
8 23 4 22 -14 -20 -45 -61 -45 -60 0 -110 73 -94 137 18 76 89 116 140 80z
m195 -2 c0 -11 -12 -15 -50 -15 l-50 0 0 -35 c0 -34 1 -35 40 -35 29 0 40 -4
40 -15 0 -11 -11 -15 -40 -15 -39 0 -40 -1 -40 -35 l0 -35 50 0 c38 0 50 -4
50 -15 0 -12 -14 -15 -65 -15 l-65 0 0 115 0 115 65 0 c51 0 65 -3 65 -15z"/>
<path d="M6083 1642 c-17 -11 -33 -59 -26 -79 19 -54 84 -72 123 -33 28 28 27
84 -2 104 -24 17 -75 21 -95 8z"/>
<path d="M683 1493 c-10 -3 -13 -43 -13 -149 l0 -144 38 -1 c89 -3 114 9 142
66 40 82 18 172 -52 215 -31 19 -87 25 -115 13z"/>
<path d="M2894 1438 c3 -106 9 -235 13 -286 l6 -93 176 6 c97 4 182 8 189 10
8 3 12 25 12 66 l0 61 -42 -6 c-24 -3 -81 -6 -128 -7 l-85 -2 -3 56 -3 55 101
7 101 8 -3 51 -3 51 -100 5 -100 5 -3 43 -3 42 115 0 c91 0 116 3 116 14 0 7
3 34 6 60 l7 46 -188 0 -188 0 7 -192z"/>
<path d="M3347 1468 c-7 -130 6 -291 27 -342 26 -61 95 -88 174 -67 40 11 41
13 35 44 -15 75 -18 81 -52 88 -18 4 -38 12 -44 18 -8 8 -13 71 -15 184 -3
116 -8 174 -15 179 -7 4 -33 8 -58 8 l-46 0 -6 -112z"/>
<path d="M4537 1503 c-3 -10 -8 -30 -11 -45 -6 -24 -9 -26 -41 -21 -30 5 -35
3 -35 -14 0 -11 -3 -34 -6 -51 -6 -29 -4 -31 26 -34 l33 -3 -2 -110 c-2 -163
30 -212 131 -201 41 4 128 39 128 51 0 2 -8 20 -17 40 -12 25 -21 34 -32 29
-37 -15 -48 -14 -71 4 -21 17 -25 30 -28 95 l-4 76 38 3 c35 3 39 6 47 42 11
42 1 56 -41 56 -22 0 -23 3 -17 39 6 38 6 39 -27 46 -18 3 -41 9 -50 11 -10 3
-18 -2 -21 -13z"/>
<path d="M3722 1431 c-62 -25 -97 -63 -111 -117 -38 -152 94 -293 237 -254 38
10 102 53 102 68 0 4 -16 17 -35 30 -33 21 -37 21 -65 7 -45 -23 -78 -19 -112
16 -17 17 -27 34 -22 38 5 5 64 21 132 36 122 28 123 29 117 54 -12 48 -55
102 -98 122 -52 23 -89 23 -145 0z m114 -64 c41 -35 30 -44 -87 -72 -53 -13
-40 63 14 85 34 14 44 12 73 -13z"/>
<path d="M3768 1353 c-9 -2 -19 -11 -22 -19 -4 -11 -1 -14 12 -10 9 3 30 8 45
12 21 5 25 9 15 15 -14 9 -22 9 -50 2z"/>
<path d="M4135 1433 c-70 -37 -104 -96 -105 -181 0 -72 28 -124 85 -158 67
-39 114 -42 178 -10 30 14 62 35 72 46 18 20 18 21 -1 35 -48 36 -63 39 -84
20 -30 -27 -93 -25 -124 4 -60 57 -13 161 72 161 23 0 45 -6 52 -15 16 -19 37
-18 78 3 l33 18 -21 27 c-49 62 -166 87 -235 50z"/>
<path d="M4990 1450 c-8 -5 -30 -7 -48 -4 -17 4 -53 3 -78 -1 l-46 -6 4 -189
c2 -104 6 -191 10 -195 4 -4 30 -4 57 0 l51 7 0 99 c0 70 5 109 15 129 18 34
69 64 96 57 17 -4 44 23 73 71 16 27 -99 55 -134 32z"/>
<path d="M5282 1441 c-65 -22 -97 -51 -118 -107 -57 -150 75 -299 233 -263 94
21 155 100 155 199 -1 83 -46 150 -119 176 -51 18 -88 17 -151 -5z m126 -106
c42 -30 45 -103 5 -147 -26 -29 -94 -24 -127 8 -35 36 -36 95 -1 129 28 29 88
34 123 10z"/>
<path d="M5312 1314 c-16 -11 -22 -25 -22 -53 0 -45 16 -62 60 -63 60 -2 89
64 46 106 -29 30 -52 33 -84 10z"/>
<path d="M5780 1444 c-26 -11 -40 -13 -52 -5 -19 12 -61 14 -93 5 -19 -5 -20
-12 -17 -192 2 -103 5 -188 6 -190 2 -1 24 1 49 4 l46 7 0 107 c-1 77 4 116
14 136 23 45 52 66 84 62 43 -5 57 -44 61 -175 l4 -111 50 -7 c38 -5 53 -4 60
6 5 8 7 70 6 139 -3 96 -8 133 -21 158 -36 66 -119 90 -197 56z"/>
<path d="M6067 1261 c4 -117 10 -189 17 -193 6 -4 32 -8 58 -8 l47 0 3 188 c2
103 3 188 3 188 0 1 -30 4 -67 7 l-68 5 7 -187z"/>
<path d="M6365 1436 c-80 -35 -131 -152 -105 -238 25 -86 124 -148 212 -133
38 7 118 58 125 81 2 7 -12 21 -31 33 l-35 22 -38 -21 c-21 -11 -44 -20 -51
-20 -26 0 -68 29 -80 55 -19 42 -14 65 22 101 38 38 80 45 124 18 25 -14 31
-14 65 1 20 8 37 19 37 23 0 14 -64 71 -93 81 -38 15 -115 13 -152 -3z"/>
<path d="M6725 1434 c-43 -22 -65 -53 -65 -94 0 -63 55 -110 130 -110 41 0 70
-16 70 -39 0 -32 -26 -44 -84 -38 l-54 5 -15 -39 -15 -39 36 -10 c95 -26 191
-1 212 56 18 45 12 101 -13 130 -18 21 -37 29 -81 35 -63 8 -86 22 -86 50 0
24 33 41 75 38 40 -4 40 -4 48 39 l7 32 -68 0 c-41 0 -79 -6 -97 -16z"/>
<path d="M2007 1322 c-21 -23 -22 -71 -1 -100 22 -32 78 -30 100 3 35 54 8
115 -51 115 -18 0 -39 -8 -48 -18z"/>
<path d="M2491 1304 c-12 -15 -21 -37 -21 -49 0 -12 9 -34 21 -49 16 -20 29
-26 59 -26 45 0 70 26 70 75 0 49 -25 75 -70 75 -30 0 -43 -6 -59 -26z"/>
<path d="M2850 620 c0 -37 2 -40 28 -40 34 0 52 16 52 46 0 23 -17 34 -56 34
-21 0 -24 -4 -24 -40z"/>
<path d="M3051 634 c-25 -31 -26 -62 -7 -109 12 -29 20 -35 45 -35 38 0 61 31
61 85 0 79 -57 112 -99 59z"/>
<path d="M4200 640 c-25 -25 -27 -95 -4 -128 23 -34 69 -30 89 8 44 86 -23
182 -85 120z"/>
<path d="M5070 620 c0 -38 2 -40 29 -40 31 0 61 22 61 45 0 18 -31 35 -64 35
-24 0 -26 -4 -26 -40z"/>
</g>
</svg>
