<?xml version="1.0" standalone="no"?>
<!DOCTYPE svg PUBLIC "-//W3C//DTD SVG 20010904//EN"
 "http://www.w3.org/TR/2001/REC-SVG-20010904/DTD/svg10.dtd">
<svg version="1.0" xmlns="http://www.w3.org/2000/svg"
 width="425.000000pt" height="239.000000pt" viewBox="0 0 425.000000 239.000000"
 preserveAspectRatio="xMidYMid meet">

<g transform="translate(0.000000,239.000000) scale(0.100000,-0.100000)"
fill="#000000" stroke="none">
<path d="M1125 2031 c-97 -25 -138 -76 -132 -164 3 -46 9 -63 32 -87 29 -30
78 -50 125 -50 43 0 98 -20 105 -38 9 -25 -30 -52 -77 -52 -29 0 -45 6 -62 25
-20 21 -32 25 -81 25 l-57 0 6 -32 c15 -79 90 -128 196 -128 111 0 185 52 197
137 12 89 -45 143 -167 159 -81 10 -100 19 -100 48 0 30 25 46 74 46 25 0 40
-6 48 -20 10 -16 24 -20 70 -20 53 0 58 2 58 23 0 82 -133 154 -235 128z"/>
<path d="M1440 1850 c0 -200 6 -228 59 -273 101 -84 277 -48 320 66 6 16 11
105 11 208 l0 179 -60 0 -60 0 0 -172 c0 -95 -4 -178 -8 -184 -24 -37 -88 -40
-124 -7 -16 14 -18 37 -18 190 l0 173 -60 0 -60 0 0 -180z"/>
<path d="M1930 1785 l0 -245 60 0 60 0 0 60 0 60 63 0 c99 1 159 36 192 113
40 96 -13 221 -104 247 -20 5 -89 10 -153 10 l-118 0 0 -245z m241 116 c16
-13 23 -29 23 -54 0 -54 -17 -67 -85 -67 l-59 0 0 63 c0 35 3 67 7 70 14 15
91 7 114 -12z"/>
<path d="M2390 1785 l0 -245 150 0 150 0 0 55 0 55 -85 0 -85 0 0 190 0 190
-65 0 -65 0 0 -245z"/>
<path d="M2760 1785 l0 -245 155 0 155 0 0 55 0 55 -95 0 -95 0 0 40 0 39 83
3 82 3 3 58 3 57 -86 0 -85 0 0 35 0 35 90 0 90 0 0 55 0 55 -150 0 -150 0 0
-245z"/>
<path d="M1020 1235 l0 -245 60 0 60 0 0 112 0 113 57 -58 58 -57 57 57 58 57
0 -112 0 -112 60 0 60 0 0 245 0 245 -24 0 c-14 0 -33 -10 -43 -24 -10 -13
-53 -60 -94 -105 l-76 -81 -93 105 c-68 76 -100 105 -117 105 l-23 0 0 -245z"/>
<path d="M1600 1236 l0 -245 153 2 152 2 3 53 3 52 -95 0 -96 0 0 45 0 44 83
3 82 3 0 53 0 52 -82 0 -83 0 0 35 0 35 90 0 90 0 0 55 0 55 -150 0 -150 0 0
-244z"/>
<path d="M1990 1239 c0 -234 1 -241 20 -246 15 -4 19 -11 14 -27 -3 -11 -13
-25 -21 -31 -76 -48 -110 -108 -98 -168 18 -83 55 -110 169 -126 73 -10 96
-23 96 -52 0 -50 -124 -52 -153 -3 -5 9 -27 14 -64 14 l-56 0 6 -37 c13 -79
102 -129 212 -121 74 6 120 30 152 78 45 65 19 166 -50 195 -17 7 -59 16 -92
20 -68 8 -105 27 -105 54 0 25 21 41 63 48 29 4 40 1 62 -21 21 -21 35 -26 75
-26 49 0 50 1 50 30 0 62 -98 130 -187 130 -21 0 -22 3 -13 20 6 11 20 20 30
20 11 0 20 7 20 15 0 8 8 15 18 15 23 1 56 28 80 68 20 35 39 29 27 -8 -15
-47 17 -78 60 -58 21 10 29 8 48 -10 28 -27 57 -29 57 -4 0 10 14 31 30 47 28
27 30 27 30 8 0 -25 25 -47 44 -40 24 10 68 83 69 118 3 51 -16 43 -42 -16
-13 -30 -26 -55 -30 -55 -4 0 -5 17 -3 39 6 56 -14 62 -55 18 -31 -35 -59 -53
-34 -23 8 10 9 16 1 21 -6 4 -10 70 -10 181 l0 174 -60 0 -60 0 0 -115 c0 -63
-3 -115 -8 -115 -4 0 -59 52 -122 115 -91 91 -120 115 -142 115 l-28 0 0 -241z
m168 -86 c-32 -34 -38 -29 -38 29 l0 52 30 -29 30 -29 -22 -23z m18 -57 c-9
-14 -26 -31 -38 -37 -22 -12 -22 -11 -8 7 29 39 54 64 58 59 3 -2 -3 -16 -12
-29z"/>
<path d="M3014 1285 c-28 -43 -15 -105 22 -105 30 0 48 92 22 118 -17 17 -26
15 -44 -13z"/>
<path d="M3109 1234 c-85 -83 -134 -157 -115 -174 11 -8 24 3 59 53 26 36 69
85 97 110 27 25 50 50 50 55 0 30 -27 17 -91 -44z"/>
<path d="M3103 1154 c-20 -9 -35 -68 -24 -98 20 -50 70 -21 71 41 0 55 -12 71
-47 57z m14 -66 c-3 -8 -6 -5 -6 6 -1 11 2 17 5 13 3 -3 4 -12 1 -19z"/>
<path d="M2659 1136 c-35 -17 -67 -81 -53 -103 17 -28 48 -27 106 4 29 15 57
29 61 31 4 2 5 -7 2 -21 -8 -31 13 -47 28 -21 21 39 85 94 101 88 23 -9 20 13
-4 26 -13 7 -26 7 -38 1 -13 -7 -23 -6 -31 2 -8 8 -15 6 -28 -12 -16 -24 -154
-94 -163 -84 -3 3 1 8 8 10 7 3 26 16 42 29 43 37 19 75 -31 50z"/>
<path d="M1547 940 c-53 -14 -87 -33 -124 -72 -45 -47 -63 -96 -63 -176 0
-158 114 -263 269 -249 110 10 187 72 217 175 22 75 9 166 -33 226 -53 75
-173 118 -266 96z m124 -133 c43 -29 59 -60 59 -116 0 -85 -59 -139 -141 -128
-51 7 -86 39 -100 90 -18 68 7 133 64 161 45 22 78 20 118 -7z"/>
<path d="M970 885 l0 -55 60 0 60 0 0 -190 0 -190 60 0 60 0 0 190 0 190 60 0
60 0 0 55 0 55 -180 0 -180 0 0 -55z"/>
</g>
</svg>
